<?xml version="1.0" encoding="UTF-8" standalone="no"?>
<!DOCTYPE svg PUBLIC "-//W3C//DTD SVG 20010904//EN"
              "http://www.w3.org/TR/2001/REC-SVG-20010904/DTD/svg10.dtd">

<svg xmlns="http://www.w3.org/2000/svg" width="32" height="32" viewBox="0 0 512 512">
  <path id="Selection" fill="#191970" stroke="white" stroke-width="1" d="M 68.00,4.00
           C 68.00,4.00 68.00,508.00 68.00,508.00
             68.00,508.00 171.00,508.00 171.00,508.00
             171.00,508.00 171.00,349.00 171.00,349.00
             171.16,340.02 178.92,332.42 183.73,325.00
             185.39,322.44 187.20,318.06 190.00,317.00
             190.51,315.03 196.51,305.86 198.21,305.34
             202.00,304.15 206.69,312.92 207.00,316.00
             211.09,319.29 220.93,335.64 223.91,341.00
             225.40,343.69 228.51,348.24 229.00,351.00
             229.00,351.00 242.00,368.00 242.00,368.00
             242.00,368.00 241.00,371.00 241.00,371.00
             244.76,373.89 251.10,383.34 252.00,388.00
             254.65,390.44 255.57,391.36 256.00,395.00
             256.00,395.00 259.00,400.00 259.00,400.00
             259.00,400.00 262.00,401.00 262.00,401.00
             262.00,401.00 267.00,412.00 267.00,412.00
             267.00,412.00 285.92,441.72 285.92,441.72
             289.42,446.82 296.46,455.89 297.00,462.00
             301.66,465.74 310.79,479.27 312.00,485.00
             316.54,489.15 319.53,495.07 321.00,501.00
             321.00,501.00 328.26,506.98 328.26,506.98
             328.26,506.98 336.00,508.00 336.00,508.00
             336.00,508.00 453.00,508.00 453.00,508.00
             453.00,508.00 452.00,502.00 452.00,502.00
             452.00,502.00 446.00,497.00 446.00,497.00
             446.00,497.00 447.00,494.00 447.00,494.00
             447.00,494.00 434.00,478.00 434.00,478.00
             434.00,478.00 435.00,475.00 435.00,475.00
             435.00,475.00 423.00,461.00 423.00,461.00
             423.00,461.00 424.00,458.00 424.00,458.00
             424.00,458.00 412.00,443.00 412.00,443.00
             412.00,443.00 413.00,441.00 413.00,441.00
             407.56,436.07 403.59,427.83 401.00,421.00
             401.00,421.00 398.00,421.00 398.00,421.00
             398.00,421.00 384.00,395.00 384.00,395.00
             380.82,393.86 378.98,388.11 378.00,385.00
             373.18,383.49 368.92,371.66 367.00,367.00
             360.14,365.06 360.35,354.28 353.00,350.00
             353.00,350.00 341.00,327.00 341.00,327.00
             338.24,324.57 337.26,323.76 337.00,320.00
             334.30,317.63 331.63,314.63 331.00,311.00
             326.93,307.54 324.68,304.37 324.00,299.00
             321.28,298.11 321.29,296.80 319.61,294.57
             316.58,290.55 311.74,283.98 311.00,279.00
             303.53,271.70 302.98,267.97 297.89,260.17
             297.89,260.17 289.80,248.00 289.80,248.00
             288.59,245.97 283.96,238.99 284.00,237.00
             284.03,235.54 289.78,227.02 290.99,225.00
             293.53,220.78 294.77,220.10 297.29,216.72
             297.29,216.72 309.82,198.83 309.82,198.83
             313.37,194.09 314.32,190.97 319.00,187.00
             319.00,187.00 330.05,169.83 330.05,169.83
             330.05,169.83 332.00,169.00 332.00,169.00
             332.00,169.00 335.00,165.00 335.00,165.00
             335.77,159.39 340.54,154.21 345.00,151.00
             345.39,145.49 352.49,137.93 355.91,133.55
             355.91,133.55 362.04,124.01 362.04,124.01
             362.04,124.01 367.93,116.84 367.93,116.84
             367.93,116.84 375.19,105.08 375.19,105.08
             377.15,102.20 383.31,92.99 386.00,92.00
             386.00,92.00 391.92,81.96 391.92,81.96
             391.92,81.96 403.71,65.00 403.71,65.00
             403.71,65.00 413.00,53.00 413.00,53.00
             413.00,53.00 412.00,51.00 412.00,51.00
             412.00,51.00 419.47,42.00 419.47,42.00
             419.47,42.00 436.00,20.00 436.00,20.00
             436.00,20.00 435.00,18.00 435.00,18.00
             439.48,15.42 443.03,8.73 445.00,4.00
             445.00,4.00 363.00,4.00 363.00,4.00
             352.84,4.00 332.65,2.35 324.00,6.00
             323.04,10.49 319.52,15.10 316.00,18.00
             316.00,18.00 313.00,23.00 313.00,23.00
             313.00,23.00 314.00,25.00 314.00,25.00
             314.00,25.00 311.00,26.00 311.00,26.00
             310.40,29.66 307.81,31.79 305.00,34.00
             305.00,34.00 307.00,36.00 307.00,36.00
             307.00,36.00 301.00,41.00 301.00,41.00
             299.68,47.17 287.07,63.16 283.27,70.00
             281.13,73.86 279.48,78.67 275.00,80.00
             272.20,89.39 266.73,95.15 261.55,103.09
             261.55,103.09 256.21,111.96 256.21,111.96
             256.21,111.96 251.21,118.17 251.21,118.17
             251.21,118.17 240.42,135.42 240.42,135.42
             237.19,139.80 232.74,150.47 228.00,152.00
             228.00,152.00 226.00,155.00 226.00,155.00
             225.78,160.90 219.38,167.20 216.15,172.09
             216.15,172.09 207.83,185.96 207.83,185.96
             207.83,185.96 188.98,214.00 188.98,214.00
             188.98,214.00 180.31,227.17 180.31,227.17
             179.24,228.76 177.58,232.06 175.69,232.66
             170.83,234.22 171.01,225.60 171.00,223.00
             171.00,223.00 171.00,4.00 171.00,4.00
             171.00,4.00 68.00,4.00 68.00,4.00 Z
           M 253.00,117.00
           C 253.00,117.00 253.00,118.00 253.00,118.00
             253.00,118.00 252.00,117.00 252.00,117.00
             252.00,117.00 253.00,117.00 253.00,117.00 Z
           M 308.00,276.00
           C 308.00,276.00 308.00,277.00 308.00,277.00
             308.00,277.00 307.00,276.00 307.00,276.00
             307.00,276.00 308.00,276.00 308.00,276.00 Z
           M 401.00,423.00
           C 401.00,423.00 401.00,424.00 401.00,424.00
             401.00,424.00 400.00,423.00 400.00,423.00
             400.00,423.00 401.00,423.00 401.00,423.00 Z
           M 277.00,425.00
           C 277.00,425.00 277.00,426.00 277.00,426.00
             277.00,426.00 276.00,425.00 276.00,425.00
             276.00,425.00 277.00,425.00 277.00,425.00 Z" />
</svg>
